<?xml version="1.0" encoding="UTF-8" standalone="no"?>
<!-- Created with Inkscape (http://www.inkscape.org/) -->

<svg
   width="200mm"
   height="150mm"
   viewBox="0 0 200 150"
   version="1.1"
   id="svg5"
   inkscape:version="1.2.2 (b0a8486541, 2022-12-01)"
   sodipodi:docname="instructions.svg"
   xml:space="preserve"
   xmlns:inkscape="http://www.inkscape.org/namespaces/inkscape"
   xmlns:sodipodi="http://sodipodi.sourceforge.net/DTD/sodipodi-0.dtd"
   xmlns="http://www.w3.org/2000/svg"
   xmlns:svg="http://www.w3.org/2000/svg"><sodipodi:namedview
     id="namedview7"
     pagecolor="#ffffff"
     bordercolor="#666666"
     borderopacity="1.0"
     inkscape:showpageshadow="2"
     inkscape:pageopacity="0.0"
     inkscape:pagecheckerboard="0"
     inkscape:deskcolor="#d1d1d1"
     inkscape:document-units="mm"
     showgrid="false"
     showguides="true"
     inkscape:zoom="1.8946147"
     inkscape:cx="278.42073"
     inkscape:cy="288.71306"
     inkscape:window-width="2560"
     inkscape:window-height="1410"
     inkscape:window-x="0"
     inkscape:window-y="0"
     inkscape:window-maximized="1"
     inkscape:current-layer="g5480" /><defs
     id="defs2" /><g
     inkscape:label="Layer 1"
     inkscape:groupmode="layer"
     id="layer1"
     transform="translate(-18.322949,-9.3688295)"><rect
       style="fill:#ffffff;fill-opacity:1;stroke:#000000;stroke-width:1.5;stroke-linejoin:round;stroke-dasharray:none;stroke-dashoffset:0"
       id="rect898"
       width="85.294685"
       height="85.294685"
       x="130.36282"
       y="-21.612043"
       ry="0"
       transform="rotate(19.974028)" /><path
       style="fill:#ffffff;stroke:none;stroke-width:0.264583px;stroke-linecap:butt;stroke-linejoin:miter;stroke-opacity:1;fill-opacity:1"
       d="m 27.408338,74.233324 16,7.999998 c 4.351002,-5.871559 4.33541,-10.17179 0,-15.999998 z"
       id="path479"
       sodipodi:nodetypes="cccc" /><path
       style="fill:none;stroke:#000000;stroke-width:1.5;stroke-linecap:butt;stroke-linejoin:miter;stroke-dasharray:none;stroke-opacity:1"
       d="m 47.408338,64.233336 -20,10 20,10"
       id="path963"
       sodipodi:nodetypes="ccc" /><path
       style="fill:none;stroke:#000000;stroke-width:1.5;stroke-linecap:butt;stroke-linejoin:miter;stroke-dasharray:none;stroke-opacity:1"
       d="m 43.408338,82.233336 c 4.548977,-5.417033 4.547783,-10.479713 0,-16"
       id="path1061"
       sodipodi:nodetypes="zz" /><ellipse
       style="fill:#000000;fill-opacity:1;stroke:none;stroke-width:1.5;stroke-linejoin:round;stroke-dasharray:none"
       id="path1121"
       cx="43.644772"
       cy="74.236053"
       rx="3.8779404"
       ry="4.5844846" /><path
       style="fill:none;stroke:#000000;stroke-width:0.264583px;stroke-linecap:butt;stroke-linejoin:miter;stroke-dasharray:1.5875, 1.5875;stroke-dashoffset:0;stroke-opacity:1"
       d="M 147.23047,13.720252 27.408338,74.233335 146.28558,134.26933"
       id="path1186" /><path
       style="fill:#e5e5e5;fill-opacity:1;stroke:#000000;stroke-width:1;stroke-linecap:butt;stroke-linejoin:miter;stroke-dasharray:none;stroke-opacity:1"
       d="m 123.08915,54.035895 c -1.14142,1.696933 -0.55288,3.977999 -0.29162,5.857075 0.24958,2.224551 4.03518,2.725634 3.06072,5.090962 -1.19124,1.309388 -2.12019,3.381736 -0.1456,4.515911 1.61776,1.603849 4.22699,1.244644 5.67277,-0.411037 1.48853,-1.485721 2.16173,-3.774756 4.17736,-4.745297 1.97371,-1.450175 4.49401,0.295102 6.49462,-0.735807 1.85571,-1.501935 2.22555,-4.299196 1.73739,-6.513748 -0.98043,-2.945933 -4.43485,-4.957784 -7.48244,-4.16196 -0.77116,0.112059 -3.48898,-0.145226 -5.66912,-0.719312 -2.18014,-0.574086 -4.40795,-0.542125 -7.55408,1.823213 z"
       id="path1257"
       sodipodi:nodetypes="ccccccccczc" /><path
       style="fill:#e5e5e5;fill-opacity:1;stroke:#000000;stroke-width:1;stroke-linecap:butt;stroke-linejoin:miter;stroke-dasharray:none;stroke-opacity:1"
       d="m 161.12668,90.596483 c -2.68364,0.921317 -6.41517,5.502264 -2.75922,7.458099 2.16643,1.463751 13.56916,4.939458 12.77918,8.722548 -0.45119,2.87238 -1.13525,7.17468 1.1674,10.257 2.63995,1.45245 4.18067,1.8445 7.15904,0 2.61056,-2.24974 -3.81252,-10.33549 -0.11144,-11.12482 3.36507,-0.67438 5.40862,-3.34216 6.58518,-6.355787 2.40979,-3.523679 -3.39854,-7.426997 -6.20675,-4.785726 -2.37736,2.901708 -5.92087,0.427413 -7.70262,-1.759904 -0.71434,-0.818221 -1.8237,0.188352 -2.72361,0.06634 -2.82544,-0.383083 -5.48982,-3.237207 -8.18716,-2.47775 z"
       id="path1261"
       sodipodi:nodetypes="cccccccccac" /><path
       style="fill:#e5e5e5;fill-opacity:1;stroke:#000000;stroke-width:1;stroke-linecap:butt;stroke-linejoin:miter;stroke-dasharray:none;stroke-opacity:1"
       d="m 194.51993,66.050656 c -2.55805,-0.873937 -2.59273,7.819052 -4.40181,10.125061 -1.54856,2.961539 -3.23219,1.841851 -3.65249,4.626709 -0.22341,2.125762 -3.07097,4.246606 -1.20488,6.302237 2.07925,1.287754 5.01075,-0.04338 6.69025,-1.562039 2.54736,-2.302896 3.38321,-5.991451 6.20708,-8.007109 1.98672,-0.529223 3.79794,-3.700548 1.63799,-4.992936 -2.15995,-1.292388 -2.71809,-5.617986 -5.27614,-6.491923 z"
       id="path1263"
       sodipodi:nodetypes="zccccczz" /><path
       style="fill:none;stroke:#000000;stroke-width:0.5;stroke-linecap:butt;stroke-linejoin:miter;stroke-dasharray:none;stroke-dashoffset:0;stroke-opacity:1"
       d="m 121.98576,20.376607 0,127.626723"
       id="path2761"
       sodipodi:nodetypes="cc" /><path
       style="fill:none;stroke:#000000;stroke-width:0.5;stroke-linecap:butt;stroke-linejoin:miter;stroke-dasharray:none;stroke-dashoffset:0;stroke-opacity:1"
       d="M 170.30761,20.376607 V 143.50333"
       id="path2763"
       sodipodi:nodetypes="cc" /><path
       style="fill:none;stroke:#000000;stroke-width:0.5;stroke-linecap:butt;stroke-linejoin:miter;stroke-dasharray:none;stroke-dashoffset:0;stroke-opacity:1"
       d="M 190.71761,20.376607 V 148.00333"
       id="path2765"
       sodipodi:nodetypes="cc" /><path
       style="fill:none;stroke:#b2b2b2;stroke-width:1;stroke-linecap:butt;stroke-linejoin:miter;stroke-dasharray:none;stroke-opacity:1"
       d="m 121.98576,148.00333 h 68.73185"
       id="path2767"
       sodipodi:nodetypes="cc" /><g
       id="g5480"
       transform="matrix(0.05,0,0,0.05,185.71761,143.00333)"><circle
         cx="100"
         cy="100"
         r="90"
         stroke="#000000"
         stroke-width="20"
         fill="none"
         id="circle5468" /><circle
         cx="100"
         cy="100"
         r="70"
         stroke="#00cc00"
         stroke-width="30"
         fill="none"
         id="circle5470"
         style="fill:#ffffff;fill-opacity:1;stroke:#ff00ff;stroke-opacity:1" /></g><g
       id="g5494"
       transform="matrix(0.05,0,0,0.05,165.30761,143.00333)"><circle
         cx="100"
         cy="100"
         r="90"
         stroke="#000000"
         stroke-width="20"
         fill="none"
         id="circle5482" /><circle
         cx="100"
         cy="100"
         r="70"
         stroke="#cccccc"
         stroke-width="30"
         fill="none"
         id="circle5484"
         style="fill:#ffffff;fill-opacity:1" /></g><g
       id="g5508"
       transform="matrix(0.05,0,0,0.05,116.98576,143.00333)"><circle
         cx="100"
         cy="100"
         r="90"
         stroke="#000000"
         stroke-width="20"
         fill="none"
         id="circle5496" /><circle
         cx="100"
         cy="100"
         r="70"
         stroke="#ff00ff"
         stroke-width="30"
         fill="none"
         id="circle5498"
         style="fill:#ffffff;fill-opacity:1;stroke:#00cc00;stroke-opacity:1" /></g><g
       id="g5877"
       transform="matrix(0.05,0,0,0.05,116.98576,51.713883)"><circle
         cx="100"
         cy="100"
         r="90"
         stroke="#000000"
         stroke-width="20"
         fill="none"
         id="circle5873" /><circle
         cx="100"
         cy="100"
         r="70"
         stroke="#ff00ff"
         stroke-width="30"
         fill="none"
         id="circle5875"
         style="stroke:#00cc00;stroke-opacity:1" /></g><g
       id="g5883"
       transform="matrix(0.05,0,0,0.05,165.30761,106.68953)"><circle
         cx="100"
         cy="100"
         r="90"
         stroke="#000000"
         stroke-width="20"
         fill="none"
         id="circle5879" /><circle
         cx="100"
         cy="100"
         r="70"
         stroke="#cccccc"
         stroke-width="30"
         fill="none"
         id="circle5881" /></g><g
       id="g5889"
       transform="matrix(0.05,0,0,0.05,185.71761,69.635641)"><circle
         cx="100"
         cy="100"
         r="90"
         stroke="#000000"
         stroke-width="20"
         fill="none"
         id="circle5885" /><circle
         cx="100"
         cy="100"
         r="70"
         stroke="#00cc00"
         stroke-width="30"
         fill="none"
         id="circle5887"
         style="stroke:#ff00ff;stroke-opacity:1" /></g><path
       style="fill:none;stroke:#000000;stroke-width:1.5;stroke-linecap:butt;stroke-linejoin:miter;stroke-dasharray:none;stroke-opacity:1"
       d="m 43.408338,82.233336 c 4.548977,-5.417033 4.547783,-10.479713 0,-16"
       id="path318"
       sodipodi:nodetypes="zz" /></g></svg>
